<svg viewBox="0 0 250 80" xmlns="http://www.w3.org/2000/svg"><path d="M53.832 61.12V36.808h2.448q.696 0 .96.264t.36.912l.288 3.792q1.248-2.544 3.084-3.972t4.308-1.428q1.008 0 1.824.228.816.228 1.512.636l-.552 3.192q-.168.6-.744.6-.336 0-1.032-.228t-1.944-.228q-2.232 0-3.732 1.296t-2.508 3.768v15.48h-4.272zM23.616 41.344q.6 0 .888-.528l.96-1.56q-1.392-1.32-3.3-2.076t-4.308-.756q-2.064 0-3.672.576t-2.712 1.548q-1.104.972-1.68 2.256-.576 1.284-.576 2.676 0 1.56.54 2.652t1.428 1.836q.888.744 2.028 1.236 1.14.492 2.328.876t2.328.732q1.14.348 2.028.816.888.468 1.428 1.128.54.66.54 1.668 0 .816-.3 1.536-.3.72-.924 1.272-.624.552-1.56.876-.936.324-2.184.324-1.464 0-2.436-.336t-1.656-.744q-.684-.408-1.164-.744-.48-.336-.912-.336-.432 0-.696.168-.264.168-.456.48l-1.008 1.632q1.44 1.296 3.504 2.124 2.064.828 4.608.828 2.232 0 3.936-.6 1.704-.6 2.88-1.644t1.776-2.472q.6-1.428.6-3.108 0-1.464-.54-2.508t-1.428-1.764q-.888-.72-2.016-1.2-1.128-.48-2.316-.876t-2.316-.744q-1.128-.348-2.016-.804-.888-.456-1.428-1.08-.54-.624-.54-1.56 0-.744.324-1.38.324-.636.936-1.116.612-.48 1.476-.756t1.944-.276q1.248 0 2.16.276.912.276 1.572.6.66.324 1.116.588.456.264.816.264zm24 .192q.192-.144.384-.408l1.128-1.536q-1.512-1.512-3.48-2.34-1.968-.828-4.512-.828-2.76 0-4.896.936t-3.588 2.604q-1.452 1.668-2.208 3.972-.756 2.304-.756 5.016 0 2.976.828 5.304.828 2.328 2.268 3.924t3.396 2.436q1.956.84 4.236.84 2.64 0 5.016-.9t3.96-2.844l-1.2-1.56q-.264-.408-.816-.408-.432 0-.864.372t-1.104.828q-.672.456-1.68.828-1.008.372-2.568.372-1.632 0-2.94-.612T36 55.756q-.912-1.164-1.416-2.88-.504-1.716-.504-3.924 0-2.112.468-3.816.468-1.704 1.392-2.904.924-1.2 2.292-1.836 1.368-.636 3.144-.636 1.344 0 2.268.3.924.3 1.572.66.648.36 1.068.66.42.3.78.3.36 0 .552-.144zm39.216-4.38q-1.848-.732-4.032-.732-2.64 0-4.752.924-2.112.924-3.576 2.544t-2.244 3.828q-.78 2.208-.78 4.752 0 3.144.864 5.568.864 2.424 2.412 4.068 1.548 1.644 3.672 2.496 2.124.852 4.644.852 1.32 0 2.664-.228t2.604-.684q1.26-.456 2.364-1.164 1.104-.708 1.896-1.668l-1.2-1.56q-.288-.408-.816-.408-.408 0-.972.372-.564.372-1.404.804-.84.432-2.004.804-1.164.372-2.772.372-1.728 0-3.12-.564-1.392-.564-2.4-1.704-1.008-1.14-1.584-2.844-.576-1.704-.624-4.008h16.176q.6 0 .816-.336.216-.336.216-1.344 0-2.592-.756-4.62t-2.1-3.408q-1.344-1.38-3.192-2.112zm21.12-.732q2.184 0 4.032.732 1.848.732 3.192 2.112 1.344 1.38 2.1 3.408t.756 4.62q0 1.008-.216 1.344-.216.336-.816.336h-16.176q.048 2.304.624 4.008.576 1.704 1.584 2.844t2.4 1.704q1.392.564 3.12.564 1.608 0 2.772-.372 1.164-.372 2.004-.804.84-.432 1.404-.804.564-.372.972-.372.528 0 .816.408l1.2 1.56q-.792.96-1.896 1.668-1.104.708-2.364 1.164-1.26.456-2.604.684-1.344.228-2.664.228-2.52 0-4.644-.852t-3.672-2.496q-1.548-1.644-2.412-4.068-.864-2.424-.864-5.568 0-2.544.78-4.752.78-2.208 2.244-3.828 1.464-1.62 3.576-2.544 2.112-.924 4.752-.924zm15.528.384V61.12h4.272V43.216q1.392-1.56 3.036-2.472 1.644-.912 3.54-.912 2.592 0 3.852 1.524 1.26 1.524 1.26 4.284v15.48h4.272V45.64q0-2.064-.528-3.768-.528-1.704-1.548-2.916t-2.544-1.872q-1.524-.66-3.516-.66-2.568 0-4.524 1.08t-3.54 2.832l-.336-2.64q-.24-.888-1.152-.888h-2.544zm-45.456 4.548q1.776-1.788 4.872-1.788 1.464 0 2.604.492 1.14.492 1.932 1.392.792.9 1.2 2.136.408 1.236.408 2.724H75.816q.432-3.168 2.208-4.956zm30.024-1.788q-3.096 0-4.872 1.788-1.776 1.788-2.208 4.956h13.224q0-1.488-.408-2.724-.408-1.236-1.2-2.136-.792-.9-1.932-1.392-1.14-.492-2.604-.492z" fill="#071733"/><path d="M230.12 48.96q0-.768.064-1.024.704-10.752 1.504-14.752t.8-4.576q.192-.768.192-1.344.512-1.152.512-1.728 1.216-3.2.448-4.096-1.472-.96-1.792-.96-1.216-.512-1.984-.512-1.664.192-1.92.32h-.064q-1.024.512-1.152.896-.704.96-.704 1.728-.256 1.408-.32 1.408-.128 1.344-.448 1.728-.192.96-.192 1.28 0 .448-.384 1.088-.576 1.728-.576 2.496-.32 1.472-.32 1.664l-.128 3.904v.448q-.064.384-.064 1.024v.384q-.256 2.24-.064 2.816-.192.64-.192 1.472-.256 1.28-.512 2.432t-.256 2.176v.896l-.064.576q.128 1.152 0 1.344 0 .832-.128 1.408 0 1.216-.064 1.408.128.512.192 1.248t.256.992l.64 1.152.96 1.024.832 1.024q1.088.448 1.216.704l1.216.768q1.344 1.024 4.544 1.728 1.472.384 3.392.384 1.536-.576 1.664-.96.128-.384.512-.384l1.216-1.216q.256-.448.384-.576.704-.384.96-.832 1.408-1.6 1.92-3.392.384-1.6-.512-2.624-.384-.448-.704-.512-.32-.064-1.344.128-1.088.832-2.304 1.984-.832.32-1.536 1.216-.704.576-.928.736-.224.16-.928.32-.704.16-.896.064-.192-.096-.48-.16t-.544-.128q-.96-.832-.96-1.024-.832-1.664-1.088-2.816-.128-.832 0-1.408t.128-1.344zm-34.496-16.896q.064 1.088.512 5.056.704 7.04.832 8.576l.64 3.008.512 3.008q1.408-2.816 1.344-3.264 0-.448 1.088-3.328 1.536-2.752 1.984-4.864.064-.384.704-1.856-.192-.192.32-1.216.512-1.088.8-2.304.288-1.216.32-1.28.032-.064.096-.128.192-.192.512-1.152.192-.896.192-1.408v-1.984q0-.192.32-1.344l-.064-1.472q0-1.536 1.472-3.968l1.28-1.088q0-.576.992-.704t1.76.128q.768.256 1.024.256.256.256 1.856.64.768.256.992.96.224.704.224 1.92l-.448 4.992q0 .448-.384 6.208l.064 2.048q-.064.128-.064 2.176v4.544l.192 2.432h-.005q-.241.055.773 5.696 0 .896.672 3.872t.352 4.96q0 1.024-1.856 1.856-1.408-.256-1.728-.832-.576-.32-.704-.512l-.512-.64q-1.024-.832-1.664-1.984-.448-.448-.64-1.28-.64-.896-.768-2.24-.128-1.344-.48-1.888-.352-.544-.544-1.056-.704-.704-.896-2.528-.192-1.824-.384-3.168 0-.768.064-1.152-.192-.512-.224-.768t-.096-.576l-.256 1.216q-.192.32-.832 2.496l-1.344 4.16-1.152 4.032q-.32.192-.768 1.536-.576 1.472-.672 1.6-.096.128-.224.384-.512 1.024-1.152 1.664-1.728 1.6-3.552.928t-2.656-2.592q-.448-1.088-.704-1.408-.064-.512-.704-1.792-.448-1.216-.704-3.072-.32-.576-.448-1.984-.32-.576-.448-1.664t-.384-2.112q-.32-1.088-.448-2.624-.128-1.152-.96-4.224-.192-.192-.512-1.28-.128 1.024-.128 1.12 0 .096-.512 3.168.128.128-.064 1.92-.384 1.216-.448 2.56-.512 3.456-.448 5.184.192.576.032 1.376-.16.8-.256 1.6t-.288 1.44v.448q-.192 1.984-.064 2.24 0 .704-.544 1.728t-1.696.768q-2.048-.512-2.368-.768-.704-1.152-.704-2.048v-3.072l.128-1.152q-.064-.192.064-1.472-.064-.064-.064-1.056t-.192-1.504v-.64q-.128-2.176-.032-2.528.096-.352-.032-1.568.256 0 .32-.992t.192-2.144l.448-.192q-.128-.064-.064-1.792.064-.448.32-2.304.256-1.856.224-2.528-.032-.672.672-2.144 1.344-4.032 1.44-5.12.096-1.088.352-1.92.256-2.112 1.216-3.52.448-1.408 1.664-1.664l.768-.576h.064q1.216-.896 4.352-.256 2.688 1.216 2.944 3.008-.256.896.192 6.208v.576zm-45.44 13.632l.384-2.816q0-.832.256-1.664 0-1.088 1.088-3.264 0-.128.576-1.664 0-.128 1.216-3.776l.768-1.856q0-.256.32-.992t.48-1.472q.16-.736.416-1.44.896-1.728 1.6-2.944 1.344-2.56 4.992-2.304l2.048.192q1.92.512 2.944 1.088 1.472.576 1.984 1.248t.448 2.208q.064.768.384 6.656t.32 5.952l.32 2.752q0 .384 1.408 9.216l1.408 4.48q1.28 3.584 1.376 3.744.096.16.544 1.376.704 2.112-1.216 2.816-1.728.256-2.56-.32-.32 0-1.472-.576-.128-.32-.736-.608t-.8-.48c-.469-.128-.896-.79-1.28-1.984q-.192-.128-.704-1.024-.448-.896-.256-1.472-.448-.576-.448-2.368-.576-.96-.576-3.008t-.64-3.2q-3.264 1.472-6.976 1.6-.704 0-.704.256 0 .576-.384 2.048l-1.088 7.04q.64 4.736-1.152 4.992-.512 0-1.696.256t-1.952-.448q-1.472-.832-2.08-1.696-.608-.864-.544-1.952.064-.896.32-3.84.128-.128.096-1.44-.032-1.312.16-2.016l1.024-3.968q.192-.128.512-1.92-.064-.128-.064-.64l-.064-.768zm8.64-1.856q.128-.128 1.504-.288 1.376-.16 3.232-1.12h.001q.062-.008-.065-1.536-.192-2.688-.32-3.84-.128-1.536-.256-2.176 0-1.216-.96-5.056l-2.816 9.536q-.896 3.968-.704 4.864l.384-.384z" fill="#00A693"/></svg>
